HIERARCHY
ROOT hip
{
  OFFSET 0 0 0
  CHANNELS 6 Xposition Yposition Zposition Zrotation Yrotation Xrotation
  JOINT abdomen
  {
    OFFSET 0 20.6881 -0.73152
    CHANNELS 3 Zrotation Xrotation Yrotation
    JOINT chest
    {
      OFFSET 0 11.7043 -0.48768
      CHANNELS 3 Zrotation Xrotation Yrotation
      JOINT neck
      {
        OFFSET 0 22.1894 -2.19456
        CHANNELS 3 Zrotation Xrotation Yrotation
        JOINT head
        {
          OFFSET -0.24384 7.07133 1.2192
          CHANNELS 3 Zrotation Xrotation Yrotation
          JOINT leftEye
          {
            OFFSET 4.14528 8.04674 8.04672
            CHANNELS 3 Zrotation Xrotation Yrotation
            End Site
            {
              OFFSET 1 0 0
            }
          }
          JOINT rightEye
          {
            OFFSET -3.6576 8.04674 8.04672
            CHANNELS 3 Zrotation Xrotation Yrotation
            End Site
            {
              OFFSET 1 0 0
            }
          }
        }
      }
      JOINT rCollar
      {
        OFFSET -2.68224 19.2634 -4.8768
        CHANNELS 3 Zrotation Xrotation Yrotation
        JOINT rShldr
        {
          OFFSET -8.77824 -1.95073 1.46304
          CHANNELS 3 Zrotation Xrotation Yrotation
          JOINT rForeArm
          {
            OFFSET -28.1742 -1.7115 0.48768
            CHANNELS 3 Zrotation Xrotation Yrotation
            JOINT rHand
            {
              OFFSET -22.5879 0.773209 7.07136
              CHANNELS 3 Zrotation Xrotation Yrotation
              JOINT rThumb1
              {
                OFFSET -1.2192 -0.487915 3.41376
                CHANNELS 3 Zrotation Xrotation Yrotation
                JOINT rThumb2
                {
                  OFFSET -3.37035 -0.52449 3.41376
                  CHANNELS 3 Zrotation Xrotation Yrotation
                  End Site
                  {
                    OFFSET -1.78271 -1.18214 1.43049
                  }
                }
              }
              JOINT rIndex1
              {
                OFFSET -7.75947 0.938293 5.60832
                CHANNELS 3 Zrotation Xrotation Yrotation
                JOINT rIndex2
                {
                  OFFSET -2.54057 -0.884171 1.56538
                  CHANNELS 3 Zrotation Xrotation Yrotation
                  End Site
                  {
                    OFFSET -1.62519 -0.234802 1.16502
                  }
                }
              }
              JOINT rMid1
              {
                OFFSET -8.24714 1.18213 3.41376
                CHANNELS 3 Zrotation Xrotation Yrotation
                JOINT rMid2
                {
                  OFFSET -3.10165 -0.590103 1.0647
                  CHANNELS 3 Zrotation Xrotation Yrotation
                  End Site
                  {
                    OFFSET -2.48547 -0.328903 0.83742
                  }
                }
              }
              JOINT rRing1
              {
                OFFSET -8.82822 0.546677 1.51678
                CHANNELS 3 Zrotation Xrotation Yrotation
                JOINT rRing2
                {
                  OFFSET -2.60934 -0.819778 -0.0198488
                  CHANNELS 3 Zrotation Xrotation Yrotation
                  End Site
                  {
                    OFFSET -2.33842 -0.294052 0.168128
                  }
                }
              }
              JOINT rPinky1
              {
                OFFSET -8.27202 -0.0477905 -0.4584
                CHANNELS 3 Zrotation Xrotation Yrotation
                JOINT rPinky2
                {
                  OFFSET -1.82734 -0.647385 -0.700984
                  CHANNELS 3 Zrotation Xrotation Yrotation
                  End Site
                  {
                    OFFSET -1.69225 -0.51767 -0.607171
                  }
                }
              }
            }
          }
        }
      }
      JOINT lCollar
      {
        OFFSET 2.68224 19.2634 -4.8768
        CHANNELS 3 Zrotation Xrotation Yrotation
        JOINT lShldr
        {
          OFFSET 8.77824 -1.95073 1.46304
          CHANNELS 3 Zrotation Xrotation Yrotation
          JOINT lForeArm
          {
            OFFSET 28.1742 -1.7115 0.48768
            CHANNELS 3 Zrotation Xrotation Yrotation
            JOINT lHand
            {
              OFFSET 22.5879 0.773209 7.07136
              CHANNELS 3 Zrotation Xrotation Yrotation
              JOINT lThumb1
              {
                OFFSET 1.2192 -0.487915 3.41376
                CHANNELS 3 Zrotation Xrotation Yrotation
                JOINT lThumb2
                {
                  OFFSET 3.37035 -0.52449 3.41376
                  CHANNELS 3 Zrotation Xrotation Yrotation
                  End Site
                  {
                    OFFSET 1.78271 -1.18214 1.43049
                  }
                }
              }
              JOINT lIndex1
              {
                OFFSET 7.75947 0.938293 5.60832
                CHANNELS 3 Zrotation Xrotation Yrotation
                JOINT lIndex2
                {
                  OFFSET 2.54057 -0.884171 1.56538
                  CHANNELS 3 Zrotation Xrotation Yrotation
                  End Site
                  {
                    OFFSET 1.62519 -0.234802 1.16502
                  }
                }
              }
              JOINT lMid1
              {
                OFFSET 8.24714 1.18213 3.41376
                CHANNELS 3 Zrotation Xrotation Yrotation
                JOINT lMid2
                {
                  OFFSET 3.10165 -0.590103 1.0647
                  CHANNELS 3 Zrotation Xrotation Yrotation
                  End Site
                  {
                    OFFSET 2.48547 -0.328903 0.83742
                  }
                }
              }
              JOINT lRing1
              {
                OFFSET 8.82822 0.546677 1.51678
                CHANNELS 3 Zrotation Xrotation Yrotation
                JOINT lRing2
                {
                  OFFSET 2.60934 -0.819778 -0.0198488
                  CHANNELS 3 Zrotation Xrotation Yrotation
                  End Site
                  {
                    OFFSET 2.33842 -0.294052 0.168128
                  }
                }
              }
              JOINT lPinky1
              {
                OFFSET 8.27202 -0.0477905 -0.4584
                CHANNELS 3 Zrotation Xrotation Yrotation
                JOINT lPinky2
                {
                  OFFSET 1.82734 -0.647385 -0.700984
                  CHANNELS 3 Zrotation Xrotation Yrotation
                  End Site
                  {
                    OFFSET 1.69225 -0.51767 -0.607171
                  }
                }
              }
            }
          }
        }
      }
    }
  }
  JOINT rButtock
  {
    OFFSET -8.77824 4.35084 1.2192
    CHANNELS 3 Zrotation Xrotation Yrotation
    JOINT rThigh
    {
      OFFSET 0 -1.70687 -2.19456
      CHANNELS 3 Zrotation Xrotation Yrotation
      JOINT rShin
      {
        OFFSET 0 -36.8199 0.73152
        CHANNELS 3 Zrotation Xrotation Yrotation
        JOINT rFoot
        {
          OFFSET 0.73152 -45.1104 -5.12064
          CHANNELS 3 Zrotation Xrotation Yrotation
          End Site
          {
            OFFSET -1.1221 -3.69964 12.103
          }
        }
      }
    }
  }
  JOINT lButtock
  {
    OFFSET 8.77824 4.35084 1.2192
    CHANNELS 3 Zrotation Xrotation Yrotation
    JOINT lThigh
    {
      OFFSET 0 -1.70687 -2.19456
      CHANNELS 3 Zrotation Xrotation Yrotation
      JOINT lShin
      {
        OFFSET 0 -36.8199 0.73152
        CHANNELS 3 Zrotation Xrotation Yrotation
        JOINT lFoot
        {
          OFFSET -0.73152 -45.1104 -5.12064
          CHANNELS 3 Zrotation Xrotation Yrotation
          End Site
          {
            OFFSET 1.1221 -3.69964 12.103
          }
        }
      }
    }
  }
}
MOTION
Frames:	9
Frame Time:	0.00833333
3.56279 85.0114 -174.804 0.0 0.0 0.0 0.0256064 -6.19211e-06 0.000728841 0.00706479 8.63089e-06 0.00122382 2.84628e-17 7.95139e-16 -1.94126e-18 8.69683e-17 9.54166e-15 -7.76503e-18 -0.0 0.0 0.0 -0.0 0.0 0.0 9.80638e-17 -1.16475e-18 1.49089e-16 1.96018e-15 -3.10601e-17 7.95139e-16 6.41081e-15 -5.96354e-16 6.36111e-15 6.20332e-14 3.67752e-15 -1.59028e-14 1.45167e-13 5.36066e-15 -9.54166e-15 2.32976e-13 9.54166e-15 -1.35174e-14 1.47896e-13 3.97569e-15 -1.90833e-14 7.73091 5.47488 0.417314 1.44367e-13 5.46658e-15 -3.18055e-15 2.90554 0.965183 0.102902 1.47622e-13 5.1684e-15 -5.56597e-15 10.2786 0.731801 0.0259123 1.38752e-13 8.34896e-15 6.36111e-15 2.22167 -0.733487 -0.20892 -9.80638e-17 -1.16475e-18 -1.49089e-16 -1.15971e-15 2.60905e-16 -7.95139e-16 3.08116e-15 4.57205e-15 -1.27222e-14 6.20954e-14 9.31803e-15 1.90833e-14 1.45238e-13 2.82213e-14 -9.54166e-15 2.65179e-13 4.77083e-14 -3.18055e-15 1.39547e-13 2.74323e-14 9.54166e-15 -7.73091 5.47488 -0.417314 1.46355e-13 2.8128e-14 -3.18055e-15 -2.90554 0.965183 -0.102902 1.41553e-13 2.80286e-14 -3.97569e-15 -10.2786 0.731801 -0.0259123 1.51474e-13 3.1408e-14 -9.54166e-15 -2.22167 -0.733487 0.20892 -2.03217e-16 0.0 -3.88251e-19 0.512301 -3.13364 -0.0420886 -0.00562803 0.1231 -0.0495525 -0.492801 3.00963 0.11736 2.03217e-16 0.0 3.88251e-19 -0.473323 -3.03453 0.0397104 0.00592197 -0.056435 0.0521749 0.492504 3.09005 -0.118955
2.24834 84.3698 -175.276 -4.2204 -4.9739 0.1861 1.44611 1.0133 -0.669168 1.49264 -1.43167 -0.141338 -3.65612 3.85259 0.223671 1.3604 -1.88965 0.624524 -0.0 0.0 0.0 -0.0 0.0 0.0 1.14395e-14 1.48677e-14 1.88946e-14 18.5806 7.22873 1.73208 -5.56725 -2.87186 8.29187 -3.65499e-05 0.110589 0.015542 -1.72513e-10 4.77337e-10 -7.45304e-11 -2.98111e-10 8.25427e-10 -1.28648e-10 -1.72511e-10 4.77338e-10 -7.45436e-11 7.73091 5.47488 0.417314 -1.72514e-10 4.77338e-10 -7.45284e-11 2.90554 0.965183 0.102902 -1.72508e-10 4.77338e-10 -7.45283e-11 10.2786 0.731801 0.0259123 -1.72518e-10 4.77341e-10 -7.45171e-11 2.22167 -0.733487 -0.20892 1.12817e-14 1.48675e-14 1.86112e-14 -25.3413 1.75114 4.6442 3.12573 -1.2546 -5.04816 -0.0716248 5.97685 -0.823939 -2.85219e-10 -1.00167e-10 -1.78432e-10 -4.96139e-10 -1.73092e-10 -3.03015e-10 -2.85225e-10 -1.00168e-10 -1.78416e-10 -7.73091 5.47488 -0.417314 -2.85218e-10 -1.00167e-10 -1.78427e-10 -2.90554 0.965183 -0.102902 -2.85225e-10 -1.00168e-10 -1.78429e-10 -10.2786 0.731801 -0.0259123 -2.85214e-10 -1.00164e-10 -1.78436e-10 -2.22167 -0.733487 0.20892 -2.03217e-16 0.0 -3.88251e-19 2.15657 -0.16737 1.92651 -0.00690253 8.84343 0.0741394 -0.673214 -0.00691881 -2.04008 2.03217e-16 0.0 3.88251e-19 1.2658 -9.87895 -0.755473 0.0369707 3.86328 0.110025 0.471618 3.68342 0.513313
2.42584 84.272 -173.891 -4.0466 -4.7888 0.0256 3.01595 2.0774 -1.37796 3.04279 -2.95231 -0.291627 -7.55854 7.93958 0.466093 2.84232 -3.89536 1.2891 -0.0 0.0 0.0 -0.0 0.0 0.0 2.44481e-14 3.16312e-14 4.00737e-14 37.7194 14.8864 3.68193 -10.5492 -5.69935 17.1104 -0.000184279 0.247536 0.0347885 -3.72845e-10 1.02886e-09 -1.61992e-10 -6.44279e-10 1.77915e-09 -2.79636e-10 -3.72845e-10 1.02887e-09 -1.62009e-10 7.73091 5.47488 0.417314 -3.72847e-10 1.02886e-09 -1.61995e-10 2.90554 0.965183 0.102902 -3.72839e-10 1.02886e-09 -1.61992e-10 10.2786 0.731801 0.0259123 -3.7285e-10 1.02887e-09 -1.61982e-10 2.22167 -0.733487 -0.20892 2.43302e-14 3.16309e-14 3.98066e-14 -52.448 3.63075 9.58275 6.21527 -2.56223 -10.4334 0.0436072 12.2157 -1.71501 -6.17358e-10 -2.14486e-10 -3.86279e-10 -1.07396e-09 -3.70639e-10 -6.55929e-10 -6.17365e-10 -2.14489e-10 -3.86265e-10 -7.73091 5.47488 -0.417314 -6.17356e-10 -2.14488e-10 -3.86274e-10 -2.90554 0.965183 -0.102902 -6.17365e-10 -2.14489e-10 -3.86277e-10 -10.2786 0.731801 -0.0259123 -6.17354e-10 -2.14485e-10 -3.86286e-10 -2.22167 -0.733487 0.20892 -2.03217e-16 0.0 -3.88251e-19 3.71695 2.99642 4.03245 -0.0498457 17.9459 0.21291 -1.12867 -3.35425 -4.36613 2.03217e-16 0.0 3.88251e-19 2.93851 -17.1174 -1.6521 0.0606809 7.93376 0.172644 0.434547 4.31012 1.25114
2.64698 84.2655 -172.552 -3.7574 -4.5431 -0.0616 4.35828 3.03824 -2.01148 4.44237 -4.29493 -0.42753 -11.0602 11.5571 0.683352 4.20527 -5.66626 1.88175 -0.0 0.0 0.0 -0.0 0.0 0.0 3.41224e-14 4.46055e-14 5.63857e-14 54.3484 21.6038 5.54558 -14.2754 -7.8953 25.0983 -0.000289642 0.331767 0.0466267 -5.17828e-10 1.432e-09 -2.23572e-10 -8.948e-10 2.47626e-09 -3.85917e-10 -5.17828e-10 1.43201e-09 -2.23593e-10 7.73091 5.47488 0.417314 -5.1783e-10 1.432e-09 -2.23579e-10 2.90554 0.965183 0.102902 -5.17821e-10 1.432e-09 -2.23574e-10 10.2786 0.731801 0.0259123 -5.17832e-10 1.43201e-09 -2.23564e-10 2.22167 -0.733487 -0.20892 3.40413e-14 4.46048e-14 5.61318e-14 -76.8692 5.11539 13.9829 8.7214 -3.64712 -15.1723 0.323 17.9153 -2.58374 -8.55948e-10 -3.00556e-10 -5.35278e-10 -1.48895e-09 -5.19372e-10 -9.09039e-10 -8.55955e-10 -3.00559e-10 -5.35267e-10 -7.73091 5.47488 -0.417314 -8.55945e-10 -3.00559e-10 -5.35274e-10 -2.90554 0.965183 -0.102902 -8.55957e-10 -3.00559e-10 -5.35278e-10 -10.2786 0.731801 -0.0259123 -8.55945e-10 -3.00556e-10 -5.35288e-10 -2.22167 -0.733487 0.20892 -2.03217e-16 0.0 -3.88251e-19 4.83271 5.73463 5.89315 -0.132534 26.2837 0.355649 -1.71661 -6.0028 -6.38982 2.03217e-16 0.0 3.88251e-19 4.12878 -23.55 -2.52232 0.074809 11.7026 0.22975 0.390433 4.86824 1.78075
2.85196 84.2995 -171.253 -3.5102 -4.2138 -0.2362 5.08235 3.74251 -2.45447 5.48066 -5.1926 -0.526435 -13.4923 14.0015 0.825426 5.18144 -6.85281 2.28656 -0.0 0.0 0.0 -0.0 0.0 0.0 3.54606e-14 4.81067e-14 6.05299e-14 65.7613 26.0551 6.84192 -16.5301 -9.18921 30.7999 -9.90662e-05 0.284207 0.039943 -5.24436e-10 1.46417e-09 -2.20447e-10 -9.06201e-10 2.53183e-09 -3.80431e-10 -5.24435e-10 1.46418e-09 -2.2047e-10 7.73091 5.47488 0.417314 -5.24438e-10 1.46418e-09 -2.20457e-10 2.90554 0.965183 0.102902 -5.24428e-10 1.46418e-09 -2.20451e-10 10.2786 0.731801 0.0259123 -5.2444e-10 1.46418e-09 -2.20441e-10 2.22167 -0.733487 -0.20892 3.54085e-14 4.81049e-14 6.02815e-14 -93.9279 5.75805 16.9807 10.2478 -4.29337 -18.267 0.650186 22.2796 -3.30101 -8.60666e-10 -3.16001e-10 -5.37161e-10 -1.49686e-09 -5.46069e-10 -9.12639e-10 -8.60673e-10 -3.16004e-10 -5.37151e-10 -7.73091 5.47488 -0.417314 -8.60663e-10 -3.16003e-10 -5.37158e-10 -2.90554 0.965183 -0.102902 -8.60675e-10 -3.16004e-10 -5.37161e-10 -10.2786 0.731801 -0.0259123 -8.60663e-10 -3.16001e-10 -5.37173e-10 -2.22167 -0.733487 0.20892 -2.03217e-16 0.0 -3.88251e-19 5.29057 7.44341 7.10084 -0.229696 32.7104 0.478706 -2.07679 -6.95254 -7.60046 2.03217e-16 0.0 3.88251e-19 4.57135 -27.985 -3.16186 0.0817159 14.7176 0.269721 0.363369 5.25716 1.787
3.10669 84.2712 -169.915 -3.0665 -3.8859 -0.484 4.87959 4.04637 -2.7783 6.15874 -5.51537 -0.610052 -14.5062 14.9733 0.934261 5.5643 -7.31082 2.55929 -0.0 0.0 0.0 -0.0 0.0 0.0 2.22851e-14 3.58858e-14 4.52887e-14 70.2784 27.604 7.03892 -17.4038 -9.69079 33.2061 0.00043022 0.00100203 0.000143025 -2.91109e-10 8.66169e-10 -1.01016e-10 -5.02988e-10 1.49759e-09 -1.74008e-10 -2.91106e-10 8.66171e-10 -1.01037e-10 7.73091 5.47488 0.417314 -2.9111e-10 8.66171e-10 -1.01026e-10 2.90554 0.965183 0.102902 -2.91101e-10 8.66171e-10 -1.0102e-10 10.2786 0.731801 0.0259123 -2.91114e-10 8.66172e-10 -1.0101e-10 2.22167 -0.733487 -0.20892 2.22535e-14 3.58816e-14 4.50313e-14 -100.513 5.08063 18.1003 10.577 -4.38917 -18.9945 0.872283 24.8651 -3.74785 -4.57327e-10 -2.10829e-10 -2.66756e-10 -7.94051e-10 -3.64272e-10 -4.54086e-10 -4.57333e-10 -2.10833e-10 -2.66748e-10 -7.73091 5.47488 -0.417314 -4.57324e-10 -2.10831e-10 -2.66755e-10 -2.90554 0.965183 -0.102902 -4.57335e-10 -2.10833e-10 -2.66758e-10 -10.2786 0.731801 -0.0259123 -4.57324e-10 -2.1083e-10 -2.6677e-10 -2.22167 -0.733487 0.20892 -2.03217e-16 0.0 -3.88251e-19 4.99385 7.80558 7.32924 -0.298658 36.4341 0.548332 -1.91272 -5.60311 -7.62385 2.03217e-16 0.0 3.88251e-19 4.17187 -29.654 -3.37039 0.0863945 16.7213 0.281219 0.377879 5.44751 0.951404
3.39877 84.2249 -168.549 -2.4666 -3.6367 -0.7271 4.01129 4.0665 -3.00938 6.57467 -5.42524 -0.680759 -14.4952 14.8853 1.01324 5.51505 -7.24473 2.7297 -0.0 0.0 0.0 -0.0 0.0 0.0 -1.12208e-15 1.25521e-14 1.63128e-14 69.9816 27.0816 6.38833 -17.4384 -9.76469 33.2323 0.000417507 -0.448085 -0.0629705 1.114e-10 -1.76685e-10 1.00268e-10 1.92576e-10 -3.05955e-10 1.73823e-10 1.11406e-10 -1.76688e-10 1.00248e-10 7.73091 5.47488 0.417314 1.11399e-10 -1.76685e-10 1.00257e-10 2.90554 0.965183 0.102902 1.11407e-10 -1.76685e-10 1.00261e-10 10.2786 0.731801 0.0259123 1.11393e-10 -1.76684e-10 1.00273e-10 2.22167 -0.733487 -0.20892 -1.13913e-15 1.25445e-14 1.60363e-14 -99.586 3.48745 17.8809 10.0813 -4.10713 -18.0306 0.967081 26.1797 -3.9747 2.33642e-10 -2.05384e-11 1.94982e-10 4.09716e-10 -3.53421e-11 3.29201e-10 2.33637e-10 -2.05413e-11 1.94988e-10 -7.73091 5.47488 -0.417314 2.33645e-10 -2.05393e-11 1.9498e-10 -2.90554 0.965183 -0.102902 2.33635e-10 -2.05421e-11 1.94979e-10 -10.2786 0.731801 -0.0259123 2.33646e-10 -2.05396e-11 1.94967e-10 -2.22167 -0.733487 0.20892 -2.03217e-16 0.0 -3.88251e-19 4.1886 7.20711 6.85377 -0.331483 38.2286 0.569024 -1.42112 -2.60372 -6.81905 2.03217e-16 0.0 3.88251e-19 3.22929 -29.3498 -3.23535 0.0920666 18.0006 0.271579 0.423752 5.49155 -0.480606
3.66741 84.2266 -167.228 -1.8684 -3.4764 -1.0276 2.9387 4.04097 -2.9646 6.66417 -5.09323 -0.686701 -13.8973 14.1028 0.950949 5.311 -6.8288 2.6407 -0.0 0.0 0.0 -0.0 0.0 0.0 -2.40725e-14 -1.12912e-14 -1.43964e-14 67.9111 25.3889 5.48787 -17.1354 -9.66496 32.279 -0.000563829 -0.881704 -0.123921 5.07646e-10 -1.22016e-09 2.93139e-10 8.77324e-10 -2.11058e-09 5.07079e-10 5.07655e-10 -1.22017e-09 2.93122e-10 7.73091 5.47488 0.417314 5.07646e-10 -1.22016e-09 2.93129e-10 2.90554 0.965183 0.102902 5.07651e-10 -1.22016e-09 2.93132e-10 10.2786 0.731801 0.0259123 5.07638e-10 -1.22016e-09 2.93145e-10 2.22167 -0.733487 -0.20892 -2.40816e-14 -1.13019e-14 -1.46903e-14 -95.548 1.88987 16.9536 9.2759 -3.68926 -16.4695 0.991232 26.8574 -4.08565 9.10645e-10 1.69014e-10 6.27135e-10 1.58855e-09 2.92208e-10 1.06184e-09 9.1064e-10 1.69012e-10 6.27139e-10 -7.73091 5.47488 -0.417314 9.10648e-10 1.69015e-10 6.27131e-10 -2.90554 0.965183 -0.102902 9.1064e-10 1.69011e-10 6.27132e-10 -10.2786 0.731801 -0.0259123 9.1065e-10 1.69013e-10 6.27119e-10 -2.22167 -0.733487 0.20892 -2.03217e-16 0.0 -3.88251e-19 3.20642 6.10995 6.15383 -0.34952 39.2958 0.568667 -0.912521 1.14915 -5.73894 2.03217e-16 0.0 3.88251e-19 2.11331 -28.2273 -2.94391 0.0988399 18.9194 0.256704 0.471107 5.41337 -1.97822
3.91462 84.2372 -165.956 -1.3726 -3.4214 -1.2918 2.12446 4.20752 -2.46099 6.36041 -4.69035 -0.576265 -13.1632 12.9908 0.639365 5.2412 -6.23636 2.1368 -0.0 0.0 0.0 -0.0 0.0 0.0 -3.58777e-14 -2.50407e-14 -3.4837e-14 67.1579 23.4403 4.91277 -16.9714 -9.62199 31.7514 -0.00153457 -1.11851 -0.157216 7.22183e-10 -1.82002e-09 3.87334e-10 1.24809e-09 -3.14806e-09 6.69776e-10 7.22195e-10 -1.82003e-09 3.87318e-10 7.73091 5.47488 0.417314 7.22184e-10 -1.82002e-09 3.87325e-10 2.90554 0.965183 0.102902 7.22187e-10 -1.82002e-09 3.87327e-10 10.2786 0.731801 0.0259123 7.22174e-10 -1.82002e-09 3.87341e-10 2.22167 -0.733487 -0.20892 -3.58859e-14 -2.50531e-14 -3.51352e-14 -92.7139 1.22584 15.9148 8.70881 -3.39284 -15.4015 1.02955 27.5299 -4.20092 1.27209e-09 2.71972e-10 8.08786e-10 2.21655e-09 4.69867e-10 1.36846e-09 1.27208e-09 2.71971e-10 8.0879e-10 -7.73091 5.47488 -0.417314 1.27209e-09 2.71973e-10 8.0878e-10 -2.90554 0.965183 -0.102902 1.27208e-09 2.71969e-10 8.08782e-10 -10.2786 0.731801 -0.0259123 1.27209e-09 2.71971e-10 8.08771e-10 -2.22167 -0.733487 0.20892 -2.03217e-16 0.0 -3.88251e-19 2.40705 4.98117 5.70356 -0.382735 40.8377 0.581827 -0.551409 4.73846 -4.90062 2.03217e-16 0.0 3.88251e-19 1.1999 -27.4417 -2.68009 0.10542 19.8414 0.25309 0.492085 5.24202 -3.01084
